<?xml version="1.0" encoding="UTF-8"?>
<svg width="1280px" height="684px" viewBox="0 0 1280 684" version="1.1" xmlns="http://www.w3.org/2000/svg" xmlns:xlink="http://www.w3.org/1999/xlink" style="background: #EBD5BE;">
    <!-- Generator: Sketch 41.2 (35397) - http://www.bohemiancoding.com/sketch -->
    <title>Desktop Landscape</title>
    <desc>Created with Sketch.</desc>
    <defs>
        <rect id="path-1" x="25" y="23" width="1230" height="634.410671"></rect>
        <mask id="mask-2" maskContentUnits="userSpaceOnUse" maskUnits="objectBoundingBox" x="0" y="0" width="1230" height="634.410671" fill="white">
            <use xlink:href="#path-1"></use>
        </mask>
        <rect id="path-3" x="34" y="31.6119096" width="1211.28959" height="617.105167"></rect>
        <mask id="mask-4" maskContentUnits="userSpaceOnUse" maskUnits="objectBoundingBox" x="0" y="0" width="1211.28959" height="617.105167" fill="white">
            <use xlink:href="#path-3"></use>
        </mask>
    </defs>
    <g id="Page-1" stroke="none" stroke-width="1" fill="none" fill-rule="evenodd">
        <g id="Desktop-Landscape">
            <path d="M495.120601,166.077184 C495.146868,166.627904 495.599088,166.945976 496.136944,166.795004 C496.136944,166.795004 507.528247,163.189232 511.488631,167.07435 C516.066353,171.565074 511.488631,174.475156 511.488631,176.470171 C511.488631,177.487968 512.556001,182.865573 513.229403,188.026554 C513.902806,193.187535 514.161487,197.683904 512.688614,200.657333 C506.888414,208.556681 485.073639,229.434075 481.624402,236.759929 C480.702819,240.426476 479.91215,244.759341 486.137599,248.567336 C492.363048,252.375332 496.440472,251.993428 500.032308,254.541732 C503.624144,257.090036 504.529989,257.167468 505.199949,262.091524 C505.869909,267.01558 501.792874,269.359314 501.792874,275.479278 C503.029102,285.357376 508.308214,284.250325 508.308214,287.640957 C508.308214,291.031589 502.628498,293.382082 503.697029,297.029359 C506.479329,306.526337 511.349325,306.334057 512.688614,312.851762 C514.027902,319.369467 510.957821,327.310128 510.957821,332.36431 C510.957821,337.418492 514.120909,339.862523 516.91787,344.070727 C519.714832,348.278931 524.745663,349.866098 524.745663,349.866098 C525.2613,350.06021 526.123768,350.219929 526.678593,350.222096 C526.678593,350.222096 534.694261,350.277317 538.814299,350.05454 C542.934338,349.831762 560.534443,348.361929 560.534443,348.361929 C561.085626,348.316091 561.763391,348.661161 562.048077,349.138241 C562.048077,349.138241 565.684248,355.073572 566.308796,357.572099 C566.933344,360.070627 566.929952,370.8629 566.929952,370.8629 C566.931825,371.402301 566.495398,371.841979 565.930604,371.845082 L544.893343,371.960671 C543.783779,371.966768 542.271058,372.618825 541.49312,373.421355 C541.49312,373.421355 538.417121,376.77312 535.903182,378.442498 C533.389243,380.111876 524.683579,384.362947 524.683579,384.362947 C523.695985,384.850273 523.377784,385.99123 523.982103,386.932519 C523.982103,386.932519 527.588463,392.456421 529.635862,396.229555 C531.68326,400.002689 533.893418,405.046725 533.893418,405.046725 C534.572752,406.556469 534.006962,408.536763 532.66264,409.488846 C532.66264,409.488846 513.229403,421.986673 506.92628,438.849065 C498.966736,454.310212 490.376179,488.269403 490.376179,488.269403 C490.238854,488.803542 490.559538,489.330762 491.092173,489.470696 C491.092173,489.470696 491.985064,489.584374 492.683719,490.186118 C493.382374,490.787861 493.799748,491.868407 493.799748,491.868407 C494.030227,492.360168 494.657113,492.75388 495.217403,492.747591 L499.618882,492.698187 C500.171352,492.691986 500.611797,493.125537 500.602286,493.68768 L500.04924,526.373774 C500.039889,526.926457 500.479615,527.374495 501.040973,527.374495 L501.732463,527.374495 C502.289533,527.374495 502.741128,527.812798 502.741128,528.364735 L502.741128,528.121193 C502.741128,528.668088 503.192114,529.111433 503.741225,529.111433 L504.199852,529.111433 C504.752191,529.111433 505.285945,528.672747 505.394128,528.120882 L505.333078,528.432315 C505.44032,527.885249 505.982827,527.434856 506.522449,527.426673 L514.529999,527.305249 C515.079629,527.296915 515.541981,526.850584 515.563245,526.29385 L516.028299,514.117873 C516.049316,513.567627 516.521861,513.101682 517.061484,513.078127 L520.637455,512.922033 C521.187051,512.898042 521.650259,513.324246 521.6723,513.880056 L521.676205,513.978527 C521.698138,514.531618 522.160868,514.979988 522.70797,514.979988 L525.193929,514.979988 C525.741824,514.979988 526.185981,515.431739 526.185981,515.978638 L526.185981,516.213694 C526.185981,516.765234 526.623637,517.201164 527.187976,517.186746 L527.834365,517.170233 C528.387752,517.156095 528.83636,516.700334 528.83636,516.1466 L528.83636,513.839566 C528.83636,513.288367 529.284156,512.841532 529.840086,512.841532 L531.368313,512.841532 C531.922656,512.841532 532.37204,512.385804 532.37204,511.833249 L532.37204,510.363859 C532.37204,509.807 532.819123,509.355576 533.374384,509.355576 L540.904255,509.355576 C541.457834,509.355576 541.906599,508.916799 541.906599,508.35441 L541.906599,503.669375 C541.906599,503.116446 542.355331,502.668209 542.914103,502.668209 L545.76155,502.668209 C546.317979,502.668209 546.769054,503.118795 546.769054,503.662135 L546.769054,550.328108 C546.769054,550.877038 547.214345,551.322034 547.764744,551.322034 L548.329762,551.322034 C548.879666,551.322034 549.325452,551.764062 549.325452,552.31405 L549.325452,565.099724 C549.325452,565.647599 549.774291,566.131697 550.317666,566.18007 L550.187391,566.168473 C550.735376,566.217256 551.179605,565.817935 551.179605,565.258685 L551.179605,552.042675 C551.179605,551.49143 551.632894,551.044557 552.186372,551.044557 L565.884984,551.044557 C566.441006,551.044557 566.891751,550.60087 566.891751,550.04912 L566.891751,543.78755 C566.891751,543.237785 567.339541,542.792113 567.889638,542.792113 L569.545726,542.792113 C570.096844,542.792113 570.543613,543.235275 570.543613,543.792112 L570.543613,548.876539 C570.543613,549.428823 571.000229,549.876538 571.549316,549.876538 L572.460248,549.876538 C573.015682,549.876538 573.465951,550.326301 573.465951,550.873286 L573.465951,555.734596 C573.465951,556.285084 573.908515,556.731343 574.470122,556.731343 L575.002528,556.731343 C575.557117,556.731343 576.0067,557.181378 576.0067,557.737835 L576.0067,563.67184 C576.0067,564.227709 576.460656,564.678331 577.001778,564.678331 L577.152176,564.678331 C577.701743,564.678331 578.147254,565.129542 578.147254,565.685137 L578.147254,576.779637 C578.147254,577.335681 578.571685,577.903099 579.112539,578.051753 L591.893801,581.564697 C592.426913,581.711223 592.859085,581.38099 592.859085,580.828854 L592.859085,565.376109 C592.859085,564.823188 593.308096,564.374956 593.853457,564.374956 L595.649362,564.374956 C596.198538,564.374956 596.643734,563.932116 596.643734,563.377843 L596.643734,542.166528 C596.643734,541.615838 596.841567,541.571338 597.086654,542.055469 C597.086654,542.055469 602.904437,554.23454 605.970835,551.322034 C612.885754,548.1304 616.821198,522.822767 616.821198,522.822767 C616.91025,522.286315 617.432571,521.851434 617.986319,521.851434 L620.039703,521.851434 C620.59413,521.851434 621.043581,522.304759 621.043581,522.853544 L621.043581,581.500353 C621.043581,582.053803 621.428084,582.737191 621.904127,583.027803 L629.691094,587.781536 C630.166361,588.071674 630.55164,588.749855 630.55164,589.312265 L630.55164,617.007321 C630.55164,617.562581 630.826584,618.361281 631.173835,618.801524 L632.796899,620.859236 C633.140528,621.294887 633.419094,621.202649 633.419094,620.645081 L633.419094,610.136385 C633.419094,609.58246 633.789848,608.885789 634.244086,608.582405 L642.675369,602.951179 C643.131,602.646865 643.500361,601.961013 643.500361,601.408531 L643.500361,499.844526 C643.500361,499.29686 643.944452,498.852888 644.503583,498.852888 L655.844498,498.852888 C656.398562,498.852888 656.84772,498.397781 656.84772,497.855854 L656.84772,494.050046 C656.84772,493.499399 657.293929,493.053012 657.852507,493.053012 L668.380239,493.053012 C668.935168,493.053012 669.385027,493.507663 669.385027,494.056625 L669.385027,544.640357 C669.385027,545.194638 669.808443,545.799508 670.326194,545.989698 L675.212621,547.784673 C675.732414,547.975613 676.153789,548.568761 676.153789,549.120678 L676.153789,560.315272 C676.153789,560.862188 676.599291,561.30555 677.156622,561.30555 L691.182318,561.30555 C691.736168,561.30555 692.185151,560.84802 692.185151,560.303892 L692.185151,554.993112 C692.185151,554.439911 692.631844,553.991454 693.184553,553.991454 L695.844421,553.991454 C696.396375,553.991454 696.843822,553.534941 696.843822,552.987358 L696.843822,516.720297 C696.843822,516.16575 697.293773,515.716201 697.850996,515.716201 L698.716333,515.716201 C699.27258,515.716201 699.723507,516.163409 699.723507,516.716494 L699.723507,548.139239 C699.723507,548.691686 700.171374,549.139533 700.729772,549.139533 L701.843154,549.139533 C702.398899,549.139533 702.849419,549.579102 702.849419,550.133832 L702.849419,552.252684 C702.849419,552.80182 703.297298,553.246983 703.850897,553.246983 L704.419199,553.246983 C704.972301,553.246983 705.420678,553.696956 705.420678,554.244197 L705.420678,559.107784 C705.420678,559.65853 705.871164,560.104998 706.42818,560.104998 L712.368142,560.104998 C712.92457,560.104998 713.375644,559.663147 713.375644,559.096509 L713.375644,544.594185 C713.375644,544.037212 713.817514,543.585696 714.376193,543.585696 L719.794016,543.585696 C720.346604,543.585696 720.794565,543.136866 720.794565,542.585485 L720.794565,516.011856 C720.794565,515.459455 721.240706,515.011645 721.801472,515.011645 L725.723339,515.011645 C726.279439,515.011645 726.730247,514.567326 726.730247,514.016535 L726.730247,480.865242 C726.730247,480.315658 727.168704,479.870132 727.734076,479.870132 L728.381648,479.870132 C728.936048,479.870132 729.385477,480.323791 729.385477,480.864714 L729.385477,494.033905 C729.385477,494.583197 729.837166,495.028487 730.379091,495.028487 L732.329429,495.028487 C732.878187,495.028487 733.323043,495.466859 733.323043,496.03667 L733.323043,513.27647 C733.323043,513.833274 733.768773,514.284653 734.329023,514.284653 L738.247277,514.284653 C738.802865,514.284653 739.253257,514.731419 739.253257,515.283641 L739.253257,515.850529 C739.253257,516.402255 739.697604,516.849517 740.247028,516.849517 L746.106033,516.849517 C746.654877,516.849517 747.099804,516.400455 747.099804,515.848294 L747.099804,513.339353 C747.099804,512.786393 747.537859,512.33813 748.090444,512.33813 L751.247072,512.33813 C751.794188,512.33813 752.237712,511.890309 752.237712,511.34765 L752.237712,508.65817 C752.237712,508.111142 752.677182,507.667689 753.231785,507.667689 L755.350155,507.667689 C755.899167,507.667689 756.344228,507.22852 756.344228,506.657896 L756.344228,496.337978 C756.344228,495.780285 756.784211,495.328185 757.346671,495.328185 L760.948919,495.328185 C761.502553,495.328185 761.951362,494.877942 761.951362,494.331085 L761.951362,492.530254 C761.951362,491.979571 762.405904,491.533155 762.951093,491.533155 L766.073624,491.533155 C766.62576,491.533155 767.115121,491.09737 767.162238,490.532696 C767.162238,490.532696 770.555443,459.421803 755.453266,440.230186 C740.351089,421.038569 718.738903,415.014048 718.738903,415.014048 C718.220434,414.854211 717.800132,414.271545 717.800132,413.730981 L717.800132,386.334224 C717.800132,385.233201 716.928225,384.164776 715.839183,383.945108 L707.180342,382.198557 C706.908735,382.143772 706.662342,381.880771 706.629814,381.60062 C706.629814,381.60062 704.787548,366.73355 706.688554,362.784748 C708.589561,358.835945 716.341058,362.113592 720.794565,355.545797 C724.363675,348.256843 726.237114,339.020619 727.621696,338.209911 C730.609564,336.46044 733.421392,340.110779 736.267118,339.40915 C739.112845,338.70752 741.061066,335.570401 741.061066,335.570401 C741.381638,335.1191 742.080132,334.738126 742.641865,334.718759 L749.799688,334.471971 L749.528578,327.310128 C749.528578,327.310128 753.43625,325.02056 754.132942,323.352156 C754.829635,321.683752 754.331233,318.26129 754.331233,318.26129 C754.22172,317.169167 754.968412,315.994016 755.961173,315.496044 C755.961173,315.496044 757.815146,315.376571 758.461043,312.249152 C759.106939,309.121732 755.886144,304.130655 757.05868,302.684231 C759.801154,299.301153 766.053034,303.316063 771.847364,295.948902 C777.641693,288.581742 772.910381,280.94291 774.404324,276.256465 C775.898267,271.57002 777.163356,270.882322 778.830006,269.762497 C780.496656,268.642672 784.818332,267.173023 784.818332,267.173023 C785.334189,266.990836 785.862354,266.400678 786.00258,265.878315 C786.00258,265.878315 786.741688,262.558994 788.285667,260.408343 C789.829647,258.257692 792.581246,256.352682 792.581246,256.352682 C793.882501,255.352522 793.862751,253.731401 792.656816,252.606645 C792.656816,252.606645 790.402826,251.608378 790.402826,247.972623 C790.402826,244.336869 798.08076,238.63882 798.08076,238.63882 C799.370309,237.601137 799.068325,236.715265 797.433675,236.56595 C797.433675,236.56595 792.679308,236.879343 787.475092,233.051436 C782.270877,229.223528 779.437876,225.184815 778.830006,221.024531 C778.830006,218.832509 782.271931,214.009299 784.832835,209.567934 C787.393739,205.126569 788.49224,202.468138 788.49224,202.468138 C788.943014,201.468058 788.78595,199.926306 788.19716,198.99578 C788.19716,198.99578 786.128288,196.609183 786.282896,192.958541 C786.437505,189.3079 789.947349,183.892689 789.11866,182.653317 C787.628893,180.425246 783.371433,184.163013 781.735491,183.592554 C780.09955,183.022095 777.723242,179.13459 777.723242,179.13459 C777.115623,178.217087 776.998183,176.657881 777.482934,175.668062 C777.482934,175.668062 778.830006,172.415099 781.131998,170.045498 C783.433989,167.675898 782.400617,166.425029 782.400617,164.297023 C782.400617,162.169017 774.569989,154.040586 771.847364,148.788119 C769.124739,143.535652 753.367574,114.967372 752.237712,112.00951 C750.363181,107.102178 748.792781,102.161254 748.483673,101.550923 C747.172282,98.9615948 743.999387,95.7810341 738.495949,93.4599642 C732.992511,91.1388943 725.639652,90.3785541 721.952132,88.8450115 C714.801914,85.8714239 708.19819,81.5364151 705.420678,80.4380074 C697.88649,77.4585032 698.034015,73.2638211 698.034015,73.2638211 C697.952539,72.7202483 697.456263,72.414667 696.926944,72.5723365 C696.926944,72.5723365 694.855128,73.2684415 694.177118,73.0802148 C693.499109,72.891988 692.446761,71.1137206 692.446761,71.1137206 C692.302278,70.8834665 691.976629,70.7700043 691.710733,70.8605563 C691.710733,70.8605563 681.457894,74.5756369 674.555187,73.0802148 C667.65248,71.5847926 664.013768,63.8793994 659.010333,61.4351639 C654.006897,58.9909284 648.264182,59.0024219 648.264182,59.0024219 C647.164386,58.9483521 646.334948,59.8064347 646.337144,60.8942953 C646.337144,60.8942953 646.650754,62.16276 645.689053,63.8793994 C644.727351,65.5960387 643.404331,64.801926 642.541911,64.7762582 C636.830613,64.6062757 614.373343,58.1322862 605.580874,60.0276888 C591.105119,63.1482436 586.183774,71.5408056 577.217651,73.6249828 C568.251527,75.70916 564.46321,74.2240531 564.46321,74.2240531 C562.844594,73.8931957 560.585933,74.5799814 559.366718,75.710646 C559.366718,75.710646 557.956763,77.4405841 555.81137,78.085885 C553.665977,78.7311859 548.691759,78.2360049 548.691759,78.2360049 C547.592601,78.1530959 546.092291,78.7400822 545.332072,79.5452178 C545.332072,79.5452178 540.061661,85.3008154 536.82646,87.5502609 C533.59126,89.7997063 528.456391,91.427442 528.456391,91.427442 C527.414816,91.789557 526.23014,92.9068203 525.75167,93.8979862 C525.75167,93.8979862 524.479581,97.9559883 519.714832,100.542954 C514.950082,103.129921 503.291829,104.783109 501.792874,106.218354 C499.198633,108.702331 500.756672,115.544463 498.966736,118.513578 C497.176801,121.482692 492.360329,119.372313 491.546726,121.540193 C490.733123,123.708073 494.217067,129.281576 494.217067,131.840748 C494.217067,134.39992 493.339023,142.52987 493.339023,142.52987 C493.224944,143.624184 492.552317,145.196879 491.862187,146.057933 C491.862187,146.057933 486.493422,152.014015 487.951495,155.207475 C488.865703,157.006962 492.485599,154.583484 493.691677,156.997432 C494.897755,159.411379 495.120601,166.077184 495.120601,166.077184 Z" id="Path-2" fill="#000000"></path>
            <use id="Rectangle" stroke="#000000" mask="url(#mask-2)" stroke-width="2" xlink:href="#path-1"></use>
            <use id="Rectangle" stroke="#000000" mask="url(#mask-4)" xlink:href="#path-3"></use>
        </g>
    </g>
</svg>